<?xml version="1.0" encoding="UTF-8"?>
<svg version="1.1" xmlns="http://www.w3.org/2000/svg" width="512" height="512">
<path d="M0 0 C17.0502222 15.16436429 29.63632186 33.82201229 37.015625 55.48046875 C37.23839111 56.13120361 37.46115723 56.78193848 37.69067383 57.45239258 C41.63437029 69.95520213 43.08172485 82.46989139 42.96923828 95.51977539 C42.95315244 97.72670472 42.96920376 99.93179714 42.98828125 102.13867188 C43.04839957 142.51385647 23.88532203 172.78727858 -3.203125 201.21484375 C-14.22233677 212.94706335 -16.13217101 223.06349213 -16.62109375 238.87109375 C-16.65243408 239.83128418 -16.68377441 240.79147461 -16.71606445 241.78076172 C-16.76850476 243.65435425 -16.80325144 245.52855721 -16.81713867 247.40283203 C-17.05108097 256.89097511 -19.9623702 264.61359535 -26.49609375 271.5390625 C-33.59498327 278.00437973 -40.96653228 280.5952749 -50.54760742 280.58349609 C-51.34036072 280.59021332 -52.13311401 280.59693054 -52.94989014 280.60385132 C-55.55910595 280.62277799 -58.16806364 280.62675325 -60.77734375 280.62890625 C-62.60329796 280.63533947 -64.42925116 280.64206822 -66.25520325 280.64907837 C-70.08072293 280.66103897 -73.9061524 280.66476061 -77.73168945 280.66357422 C-82.60927902 280.66337147 -87.48628309 280.69063364 -92.36373425 280.72511864 C-96.13609925 280.74747312 -99.90832546 280.7514091 -103.68074989 280.75035477 C-105.47751183 280.75269941 -107.27427827 280.76145815 -109.07097435 280.7770195 C-122.31480119 280.88095763 -133.41442889 280.21138492 -143.4765625 270.58203125 C-149.3488152 263.67211141 -151.40888826 256.2975417 -151.88671875 247.4375 C-151.96530256 246.07876491 -152.04408507 244.7200413 -152.12304688 243.36132812 C-152.24199954 241.23996492 -152.35868098 239.11852814 -152.47143555 236.99682617 C-153.47666059 218.34237873 -157.45778378 208.87027608 -170.91845703 195.77636719 C-175.85828033 190.95040783 -180.20736812 185.76471126 -184.421875 180.29296875 C-185.43701172 178.98585938 -185.43701172 178.98585938 -186.47265625 177.65234375 C-208.90988279 147.85222151 -215.66451388 110.804333 -210.73828125 74.10546875 C-209.93730263 69.40898178 -208.81563318 64.84698014 -207.421875 60.29296875 C-207.10839111 59.25849609 -207.10839111 59.25849609 -206.78857422 58.203125 C-196.64691196 26.0536758 -174.02297604 -0.85033908 -144.421875 -16.70703125 C-143.75671875 -17.0642627 -143.0915625 -17.42149414 -142.40625 -17.78955078 C-95.83626635 -42.30766956 -39.52944881 -33.57691485 0 0 Z M-163.90283203 27.05615234 C-169.81502347 33.89192956 -174.29610893 41.27746443 -178.421875 49.29296875 C-178.89238281 50.17082031 -179.36289063 51.04867187 -179.84765625 51.953125 C-192.4699143 77.23671931 -192.4088594 108.44827795 -184.234375 135.04296875 C-177.03554095 154.93054887 -164.3535358 169.52890513 -149.97558594 184.65527344 C-133.10116441 202.44182586 -130.38237726 218.65716921 -129.47460938 242.890625 C-129.32578166 249.78670361 -129.32578166 249.78670361 -126.03515625 255.54296875 C-121.78370775 258.38997761 -118.56936668 258.42301925 -113.55126953 258.43823242 C-112.85660583 258.44159103 -112.16194214 258.44494965 -111.44622803 258.44841003 C-109.14902967 258.45791136 -106.85190428 258.45986278 -104.5546875 258.4609375 C-102.95669525 258.46415083 -101.3587033 258.46751496 -99.76071167 258.47102356 C-96.40996621 258.4770129 -93.05924653 258.47886368 -89.70849609 258.47827148 C-85.41892849 258.47816991 -81.12952659 258.49181777 -76.83999825 258.50904369 C-73.53884118 258.52017329 -70.23772404 258.52219039 -66.93655014 258.52166176 C-65.3553396 258.52284059 -63.77412799 258.52725697 -62.19293594 258.53499413 C-59.97892982 258.54481274 -57.76528166 258.54190865 -55.55126953 258.53588867 C-54.29234894 258.53731369 -53.03342834 258.53873871 -51.73635864 258.54020691 C-47.49024513 258.22347544 -44.56280349 257.55613958 -41.671875 254.35546875 C-39.67851248 251.06642059 -39.290243 248.36420825 -39.2109375 244.6015625 C-38.41853164 216.18011647 -33.64389938 198.90209724 -12.98828125 178.84375 C9.37121796 156.70728819 20.72878192 129.04824661 20.953125 97.73046875 C20.70526177 66.71690118 8.43493965 40.21135189 -13.421875 18.29296875 C-35.28436464 -1.9316145 -63.23209094 -9.85207829 -92.51025391 -8.88623047 C-120.28832667 -7.1765956 -145.44543088 6.58612567 -163.90283203 27.05615234 Z " fill="#000000" transform="translate(337.421875,128.70703125)"/>
<path d="M0 0 C0.71110428 -0.0049649 1.42220856 -0.00992981 2.15486145 -0.01504517 C4.50193254 -0.02962187 6.84893604 -0.03646142 9.19604492 -0.04199219 C10.83265687 -0.04774753 12.46926881 -0.05350521 14.10588074 -0.05926514 C17.53641065 -0.06976248 20.96691723 -0.07561336 24.39746094 -0.07910156 C28.78215582 -0.0845823 33.16653956 -0.10860657 37.55113697 -0.13707352 C40.93215319 -0.15574513 44.31309514 -0.16090791 47.69415855 -0.16243744 C49.31001167 -0.16545451 50.92586378 -0.17345098 52.54166603 -0.18662262 C54.80796254 -0.20377766 57.07350773 -0.20178024 59.33984375 -0.1953125 C61.27033318 -0.20078094 61.27033318 -0.20078094 63.23982239 -0.20635986 C68.36732297 0.31356824 72.24023931 1.79374387 76.23901367 5.16113281 C79.18087827 8.78188924 79.20684277 12.40114416 79.14135742 16.87597656 C78.70169142 20.49857674 77.28193008 22.48869889 74.86401367 25.16113281 C70.27153947 27.98766329 66.40150527 28.59526063 61.11791992 28.54931641 C59.98989456 28.55720184 59.98989456 28.55720184 58.83908081 28.56524658 C56.36801007 28.57838605 53.89759028 28.56973033 51.42651367 28.55957031 C49.70068234 28.5615928 47.97485185 28.56450569 46.24902344 28.56826782 C42.63785641 28.57268297 39.02691251 28.56628629 35.41577148 28.55224609 C30.79558042 28.53515462 26.17591225 28.54500016 21.55574036 28.56296349 C17.99373461 28.57382326 14.43185206 28.57034494 10.86984253 28.56258011 C9.16665586 28.56058416 7.46345787 28.56301604 5.76028442 28.57001877 C3.37659227 28.57766953 0.99373749 28.56597912 -1.38989258 28.54931641 C-2.08825226 28.5553891 -2.78661194 28.56146179 -3.50613403 28.56771851 C-8.10050717 28.50846085 -11.24823192 27.60522931 -15.13598633 25.16113281 C-18.96788537 20.01832094 -19.94450267 16.52819903 -19.13598633 10.16113281 C-16.84219862 5.81932037 -14.2509213 2.20775776 -9.45698547 0.59698486 C-6.2842195 0.00118259 -3.22847615 0.01716016 0 0 Z " fill="#000000" transform="translate(223.135986328125,415.8388671875)"/>
<path d="M0 0 C0.76177048 -0.00686325 1.52354095 -0.0137265 2.30839539 -0.02079773 C4.81190941 -0.03901255 7.31479368 -0.03523647 9.81835938 -0.02954102 C11.56661176 -0.03410494 13.31486235 -0.03941115 15.06311035 -0.04542542 C18.72134709 -0.05434572 22.37936538 -0.05194523 26.03759766 -0.04199219 C30.7184264 -0.03049588 35.39850149 -0.05072933 40.07923126 -0.07990932 C43.68756879 -0.09828029 47.29572594 -0.09797723 50.90409851 -0.0922718 C52.62962401 -0.09211874 54.35516184 -0.09815066 56.0806427 -0.11056328 C58.4956455 -0.12549129 60.90925856 -0.11478476 63.32421875 -0.09765625 C64.03192917 -0.10732422 64.73963959 -0.11699219 65.46879578 -0.12695312 C70.4758171 -0.05282985 73.287002 1.29879504 77.16210938 4.40405273 C80.32495169 8.09403543 80.68203565 11.48259128 80.51757812 16.18920898 C79.83714226 20.42884783 77.47305262 23.10473548 74.50863647 26.04286194 C71.19973051 27.96231658 68.08823922 27.83093618 64.36767578 27.80810547 C63.58669022 27.81496872 62.80570465 27.82183197 62.00105286 27.8289032 C59.42174039 27.84719002 56.84303521 27.84333058 54.26367188 27.83764648 C52.46772056 27.84220796 50.671771 27.84751343 48.87582397 27.85353088 C45.11147981 27.8624661 41.34734773 27.86003488 37.58300781 27.85009766 C32.76536662 27.83861765 27.94845945 27.8588023 23.13091469 27.88801479 C19.42134977 27.90638755 15.71196031 27.90608203 12.0023613 27.90037727 C10.22659654 27.90022414 8.45081984 27.90626231 6.67509842 27.91866875 C4.18804582 27.93359455 1.70234322 27.9228904 -0.78466797 27.90576172 C-1.87899895 27.92026367 -1.87899895 27.92026367 -2.99543762 27.93505859 C-8.06706594 27.86214327 -10.91567834 26.56323992 -14.83789062 23.40405273 C-17.99916393 19.71590054 -18.36563837 16.3247655 -18.18554688 11.61889648 C-17.62764466 8.0646206 -16.22683952 6.04446993 -13.83789062 3.40405273 C-9.22240249 0.55894942 -5.31088795 -0.03378182 0 0 Z " fill="#000000" transform="translate(221.837890625,449.595947265625)"/>
<path d="M0 0 C0.93328125 -0.03738281 1.8665625 -0.07476562 2.828125 -0.11328125 C9.78766024 0.90087562 14.81054944 7.0388862 19.58984375 11.78125 C20.67937096 12.8572345 20.67937096 12.8572345 21.79090881 13.95495605 C23.31553451 15.46513504 24.83741651 16.97808848 26.35668945 18.49365234 C28.69224843 20.81722406 31.04583101 23.12148558 33.40039062 25.42578125 C34.88135165 26.89728773 36.36120928 28.36990571 37.83984375 29.84375 C38.54801743 30.53239136 39.2561911 31.22103271 39.98582458 31.93054199 C40.94791588 32.90174988 40.94791588 32.90174988 41.92944336 33.89257812 C42.4998082 34.45787231 43.07017303 35.0231665 43.65782166 35.60559082 C44.75 37.3125 44.75 37.3125 44.51745605 39.41477966 C43.55185702 41.80245635 42.29391847 43.0933847 40.44140625 44.87890625 C39.77689453 45.52923828 39.11238281 46.17957031 38.42773438 46.84960938 C37.38069336 47.85217773 37.38069336 47.85217773 36.3125 48.875 C34.93664939 50.20741614 33.56286316 51.5419681 32.19140625 52.87890625 C31.27403687 53.75977905 31.27403687 53.75977905 30.33813477 54.65844727 C28.5457991 56.42797952 28.5457991 56.42797952 26.75 59.3125 C23.65044005 57.93132806 21.51816003 56.33707097 19.11474609 53.9519043 C18.07379288 52.9252491 18.07379288 52.9252491 17.0118103 51.87785339 C16.27314728 51.13827896 15.53448425 50.39870453 14.7734375 49.63671875 C14.00697906 48.87454544 13.24052063 48.11237213 12.45083618 47.32710266 C10.83283907 45.71484459 9.21745118 44.09996438 7.60449219 42.48266602 C5.13602987 40.01104398 2.65455443 37.55303402 0.171875 35.09570312 C-1.39924812 33.52685304 -2.96958724 31.95721735 -4.5390625 30.38671875 C-5.28177399 29.65321701 -6.02448547 28.91971527 -6.78970337 28.16398621 C-7.47736786 27.47009293 -8.16503235 26.77619965 -8.87353516 26.0612793 C-9.47880035 25.45664352 -10.08406555 24.85200775 -10.70767212 24.22904968 C-13.48951179 20.77224001 -14.63155592 17.34129129 -14.25 12.9375 C-13.55693529 7.82080004 -11.03965738 4.69001958 -7.25 1.3125 C-4.72101435 0.04800718 -2.82519546 0.07333158 0 0 Z " fill="#000000" transform="translate(115.25,67.6875)"/>
<path d="M0 0 C3.59244601 3.48358401 5.72902793 7.22589904 6.33203125 12.2421875 C6.16789729 16.75977943 4.99602835 19.48122097 1.95483398 22.80859375 C1.00796219 23.84765869 1.00796219 23.84765869 0.04196167 24.90771484 C-3.05411746 28.18026137 -6.20404258 31.38991288 -9.40234375 34.5625 C-10.08051651 35.23925781 -10.75868927 35.91601562 -11.45741272 36.61328125 C-13.59424305 38.74457675 -15.73454823 40.87234218 -17.875 43 C-19.33682123 44.45679779 -20.79841187 45.91382701 -22.25976562 47.37109375 C-25.816354 50.91673973 -29.37606016 54.45922739 -32.9375 58 C-36.75267081 56.7282764 -37.68738875 55.04173744 -40.125 51.875 C-44.00656659 46.99440726 -48.07114531 42.88512786 -52.9375 39 C-52.35312194 35.55624966 -51.22044574 33.90801197 -48.76635742 31.45654297 C-48.09863815 30.78259491 -47.43091888 30.10864685 -46.7429657 29.41427612 C-46.01696671 28.69748688 -45.29096771 27.98069763 -44.54296875 27.2421875 C-43.79920486 26.49792511 -43.05544098 25.75366272 -42.28913879 24.98684692 C-40.71482398 23.41487231 -39.13681573 21.84658927 -37.55541992 20.28173828 C-35.13611801 17.88600968 -32.7303855 15.47726611 -30.32617188 13.06640625 C-28.7950612 11.540873 -27.26318526 10.01610735 -25.73046875 8.4921875 C-25.01054245 7.77134979 -24.29061615 7.05051208 -23.5488739 6.30783081 C-22.87169815 5.64018707 -22.1945224 4.97254333 -21.49682617 4.28466797 C-20.60866463 3.40341751 -20.60866463 3.40341751 -19.70256042 2.50436401 C-14.13635671 -2.23972092 -6.73962984 -2.29434207 0 0 Z " fill="#000000" transform="translate(398.9375,69)"/>
<path d="M0 0 C7.58044988 -0.10152851 15.160724 -0.17151993 22.74169922 -0.21972656 C25.31989088 -0.23982563 27.89803704 -0.26710941 30.47607422 -0.30175781 C34.18468461 -0.35034847 37.89269156 -0.37298658 41.6015625 -0.390625 C42.75177887 -0.41127014 43.90199524 -0.43191528 45.08706665 -0.45318604 C52.74047912 -0.45532571 56.28475239 0.41286438 61.8125 5.75 C63.56466341 9.06988857 64.11784748 12.29127058 64 16 C62.53410428 20.62914437 60.87218457 24.01288619 57 27 C51.28374287 29.58611835 45.6204009 29.25498968 39.4765625 29.1953125 C38.37524994 29.1924826 37.27393738 29.18965271 36.13925171 29.18673706 C32.63438892 29.17557478 29.12978508 29.15047711 25.625 29.125 C23.24349328 29.11496511 20.86198255 29.10584015 18.48046875 29.09765625 C12.65355803 29.07564837 6.82679752 29.04220999 1 29 C0.82931176 26.22936418 0.66339367 23.4585683 0.5 20.6875 C0.45230469 19.92115234 0.40460938 19.15480469 0.35546875 18.36523438 C-0.00041558 12.23893978 -0.05221229 6.13566882 0 0 Z " fill="#000000" transform="translate(398,205)"/>
<path d="M0 0 C1.08089401 0.00007553 2.16178802 0.00015106 3.2754364 0.00022888 C4.44113663 0.00539017 5.60683685 0.01055145 6.80786133 0.01586914 C8.5993737 0.01799156 8.5993737 0.01799156 10.42707825 0.02015686 C14.24804166 0.0257619 18.06894683 0.03831528 21.88989258 0.05102539 C24.47778236 0.05603974 27.06567305 0.06060276 29.65356445 0.06469727 C36.00321441 0.07488278 42.35273817 0.09445736 48.70239258 0.11352539 C48.04239258 9.68352539 47.38239258 19.25352539 46.70239258 29.11352539 C39.70942551 29.18250972 32.71764596 29.24221169 25.72460938 29.27832031 C23.34728996 29.29337791 20.96999819 29.31382828 18.59277344 29.33984375 C15.16960819 29.37635942 11.74681126 29.39328248 8.32348633 29.40649414 C6.73714638 29.42971992 6.73714638 29.42971992 5.11875916 29.45341492 C-2.44877662 29.4551288 -7.51326972 28.77680493 -13.17260742 23.36352539 C-15.61376431 19.62999133 -16.29760742 17.56596245 -16.29760742 13.11352539 C-15.35899999 8.72512399 -14.02968011 5.82729627 -10.79760742 2.67602539 C-7.06526852 0.34331357 -4.31019102 -0.01004707 0 0 Z " fill="#000000" transform="translate(60.297607421875,204.886474609375)"/>
<path d="M0 0 C4.55332324 2.23526777 6.73430677 4.52350141 9 9 C9.36076355 11.57539368 9.36076355 11.57539368 9.34057617 14.34106445 C9.34034958 15.3817659 9.34012299 16.42246735 9.33988953 17.4947052 C9.32440567 18.6063353 9.30892181 19.71796539 9.29296875 20.86328125 C9.28872391 22.01040085 9.28447906 23.15752045 9.28010559 24.33940125 C9.26333484 27.99734121 9.22568435 31.654727 9.1875 35.3125 C9.17245114 37.79491391 9.15876309 40.27733647 9.14648438 42.75976562 C9.11599058 48.84022819 9.05726321 54.91949494 9 61 C-0.24 61 -9.48 61 -19 61 C-19.09190666 53.7036323 -19.17152676 46.40927865 -19.21972656 39.11279297 C-19.23982241 36.63160389 -19.26710384 34.15046205 -19.30175781 31.66943359 C-19.35036294 28.09981618 -19.37298972 24.53082584 -19.390625 20.9609375 C-19.42159271 19.30123428 -19.42159271 19.30123428 -19.45318604 17.60800171 C-19.45498671 11.40581342 -19.18415544 7.7025721 -15 3 C-10.63453818 -0.85187808 -5.54054055 -0.79911643 0 0 Z " fill="#000000" transform="translate(258,11)"/>
<path d="M0 0 C4.10174724 1.63318857 6.90091128 4.57766564 9.97265625 7.63671875 C10.53697861 8.19438431 11.10130096 8.75204987 11.682724 9.32661438 C12.87289885 10.50668251 14.06038997 11.68946271 15.24536133 12.87475586 C17.04937992 14.67441165 18.86875641 16.45747398 20.68945312 18.24023438 C21.84733437 19.39224481 23.00426691 20.54520972 24.16015625 21.69921875 C24.70084244 22.22553391 25.24152863 22.75184906 25.79859924 23.29411316 C29.83696437 27.38145149 32.64717253 31.55441928 33.25 37.44140625 C32.57807201 43.14229531 31.17867359 46.01568332 27 50 C23.96653108 52.30125228 20.95007624 52.26447168 17.1953125 52.36328125 C10.9591342 51.3313158 6.9390379 47.35329963 2.7265625 43.01953125 C2.15795502 42.44667892 1.58934753 41.8738266 1.00350952 41.28361511 C-0.7965433 39.46687821 -2.58583432 37.63995334 -4.375 35.8125 C-5.59956227 34.57287765 -6.82481594 33.3339379 -8.05078125 32.09570312 C-11.04191099 29.07164053 -14.02343906 26.03840085 -17 23 C-15.56194465 19.19294387 -14.11316804 16.72123917 -11.3125 13.75 C-7.27257493 9.35556597 -3.59974203 4.758409 0 0 Z " fill="#000000" transform="translate(372,319)"/>
<path d="M0 0 C1.76171875 2.0546875 1.76171875 2.0546875 3.6875 4.875 C7.57754032 10.43941759 11.71001113 15.74019982 16 21 C14.38298595 25.0455497 11.51270418 27.77637945 8.4765625 30.7890625 C7.93397797 31.33356049 7.39139343 31.87805847 6.83236694 32.4390564 C5.68660101 33.58618019 4.53831799 34.7307947 3.38769531 35.87304688 C1.6311154 37.61892187 -0.1145486 39.37519988 -1.859375 41.1328125 C-2.97592181 42.24803765 -4.0930889 43.3626422 -5.2109375 44.4765625 C-5.73086273 45.00053619 -6.25078796 45.52450989 -6.78646851 46.06436157 C-10.79105008 50.01781284 -13.20765965 51.82370423 -18.8125 52.375 C-24.24388772 52.2331354 -27.85521412 49.93030729 -31.875 46.3125 C-33.64753376 42.66895838 -34.42930281 39.03907428 -34 35 C-31.69678519 29.0445255 -28.32550595 24.7388865 -23.80859375 20.3125 C-23.22207535 19.72452637 -22.63555695 19.13655273 -22.03126526 18.53076172 C-20.80146308 17.30260688 -19.56676437 16.07933698 -18.32739258 14.86083984 C-16.42669921 12.98936524 -14.54565163 11.09963026 -12.66601562 9.20703125 C-11.46465478 8.01190088 -10.26221863 6.81785022 -9.05859375 5.625 C-8.49603378 5.05950439 -7.93347382 4.49400879 -7.35386658 3.91137695 C-3.34610562 0 -3.34610562 0 0 0 Z " fill="#000000" transform="translate(135,319)"/>
<path d="M0 0 C20.46 0 40.92 0 62 0 C60.86308725 6.82147651 60.86308725 6.82147651 58 9.1875 C57.46375 9.65542969 56.9275 10.12335938 56.375 10.60546875 C48.33541613 15.32607967 40.27088305 15.49107013 31.125 15.4375 C29.92230469 15.45748047 28.71960938 15.47746094 27.48046875 15.49804688 C18.34515427 15.49308742 10.28722204 14.25828875 2.875 8.625 C1 6 1 6 0 0 Z " fill="#000000" transform="translate(222,484)"/>
</svg>
